<svg width="118" height="27" viewBox="0 0 118 27" fill="none" xmlns="http://www.w3.org/2000/svg">
<path fill-rule="evenodd" clip-rule="evenodd" d="M3.375 21.375V5.625C3.375 3.14887 5.39325 2.25 6.75 2.25H21.375C22.6159 2.25 23.625 3.25912 23.625 4.5V20.25H6.7635C6.24375 20.2635 5.625 20.4683 5.625 21.375C5.625 22.2817 6.24375 22.4865 6.7635 22.5H23.625V24.75H6.75C5.39325 24.75 3.375 23.8511 3.375 21.375ZM17.9396 5.41848C17.8175 5.30997 17.6599 5.25002 17.4967 5.25C16.4967 5.25 15.4967 7.11 15.4967 8.58333V12.5833L15.5013 12.6613C15.5204 12.8235 15.5984 12.973 15.7204 13.0815C15.8424 13.19 16 13.25 16.1633 13.25H16.83V16.5833L16.8347 16.6613C16.8547 16.8301 16.9385 16.9848 17.0688 17.0938C17.1991 17.2029 17.3661 17.2581 17.5357 17.2481C17.7054 17.2382 17.8648 17.1638 17.9814 17.0402C18.0981 16.9167 18.1631 16.7533 18.1633 16.5833V5.91667L18.1587 5.83867C18.1395 5.6765 18.0616 5.52698 17.9396 5.41848ZM13.9396 5.41848C13.8175 5.30997 13.6599 5.25002 13.4967 5.25C13.3198 5.25 13.1503 5.32024 13.0252 5.44526C12.9002 5.57029 12.83 5.73986 12.83 5.91667V9.25L12.8253 9.36267C12.8072 9.57679 12.7376 9.78336 12.6225 9.96479C12.5073 10.1462 12.35 10.2971 12.164 10.4047L12.1633 5.91667L12.1587 5.83867C12.1386 5.66994 12.0548 5.51524 11.9245 5.40618C11.7942 5.29712 11.6272 5.24193 11.4576 5.25189C11.288 5.26184 11.1285 5.3362 11.0119 5.45975C10.8952 5.58331 10.8302 5.74675 10.83 5.91667V10.4047C10.6273 10.2876 10.459 10.1193 10.342 9.91665C10.2249 9.71396 10.1633 9.48404 10.1633 9.25V5.91667L10.1587 5.83867C10.1386 5.66994 10.0548 5.51524 9.92454 5.40618C9.79424 5.29712 9.62721 5.24193 9.45758 5.25189C9.28796 5.26184 9.12853 5.3362 9.01189 5.45975C8.89524 5.58331 8.83017 5.74675 8.82999 5.91667V9.25L8.83332 9.38733C8.86263 9.95435 9.07207 10.4972 9.43116 10.937C9.79026 11.3768 10.2803 11.6906 10.83 11.8327V16.5833L10.8347 16.6613C10.8547 16.8301 10.9385 16.9848 11.0688 17.0938C11.1991 17.2029 11.3661 17.2581 11.5357 17.2481C11.7054 17.2382 11.8648 17.1638 11.9814 17.0402C12.0981 16.9167 12.1631 16.7533 12.1633 16.5833V11.8327C12.7357 11.6846 13.2428 11.3507 13.6048 10.8832C13.9668 10.4157 14.1632 9.84125 14.1633 9.25V5.91667L14.1587 5.83867C14.1395 5.6765 14.0616 5.52698 13.9396 5.41848Z" fill="#046380"/>
<path d="M31.292 20.5V7.01H40.45V9.746H34.408V12.653H39.386V15.18H34.408V20.5H31.292ZM46.0372 20.69C44.8972 20.69 43.9282 20.4493 43.1302 19.968C42.3449 19.4867 41.7432 18.8533 41.3252 18.068C40.9072 17.2827 40.6982 16.434 40.6982 15.522C40.6982 14.5973 40.9072 13.7423 41.3252 12.957C41.7432 12.1717 42.3512 11.5383 43.1492 11.057C43.9472 10.5757 44.9099 10.335 46.0372 10.335C47.1645 10.335 48.1272 10.5757 48.9252 11.057C49.7232 11.5383 50.3312 12.1717 50.7492 12.957C51.1672 13.7423 51.3762 14.5973 51.3762 15.522C51.3762 16.434 51.1672 17.2827 50.7492 18.068C50.3312 18.8533 49.7232 19.4867 48.9252 19.968C48.1272 20.4493 47.1645 20.69 46.0372 20.69ZM43.8142 15.522C43.8142 16.2947 44.0232 16.9217 44.4412 17.403C44.8719 17.8843 45.4039 18.125 46.0372 18.125C46.6579 18.125 47.1772 17.8843 47.5952 17.403C48.0259 16.9217 48.2412 16.2947 48.2412 15.522C48.2412 14.7493 48.0259 14.1223 47.5952 13.641C47.1772 13.1597 46.6579 12.919 46.0372 12.919C45.4039 12.919 44.8719 13.1597 44.4412 13.641C44.0232 14.1223 43.8142 14.7493 43.8142 15.522ZM57.6339 20.69C56.4939 20.69 55.5249 20.4493 54.7269 19.968C53.9415 19.4867 53.3399 18.8533 52.9219 18.068C52.5039 17.2827 52.2949 16.434 52.2949 15.522C52.2949 14.5973 52.5039 13.7423 52.9219 12.957C53.3399 12.1717 53.9479 11.5383 54.7459 11.057C55.5439 10.5757 56.5065 10.335 57.6339 10.335C58.7612 10.335 59.7239 10.5757 60.5219 11.057C61.3199 11.5383 61.9279 12.1717 62.3459 12.957C62.7639 13.7423 62.9729 14.5973 62.9729 15.522C62.9729 16.434 62.7639 17.2827 62.3459 18.068C61.9279 18.8533 61.3199 19.4867 60.5219 19.968C59.7239 20.4493 58.7612 20.69 57.6339 20.69ZM55.4109 15.522C55.4109 16.2947 55.6199 16.9217 56.0379 17.403C56.4685 17.8843 57.0005 18.125 57.6339 18.125C58.2545 18.125 58.7739 17.8843 59.1919 17.403C59.6225 16.9217 59.8379 16.2947 59.8379 15.522C59.8379 14.7493 59.6225 14.1223 59.1919 13.641C58.7739 13.1597 58.2545 12.919 57.6339 12.919C57.0005 12.919 56.4685 13.1597 56.0379 13.641C55.6199 14.1223 55.4109 14.7493 55.4109 15.522ZM63.9105 15.503C63.9105 14.5403 64.0942 13.6727 64.4615 12.9C64.8415 12.1147 65.3609 11.494 66.0195 11.038C66.6909 10.5693 67.4572 10.335 68.3185 10.335C69.0152 10.335 69.6422 10.506 70.1995 10.848C70.7695 11.1773 71.2065 11.6143 71.5105 12.159V6.63H74.5505V17.118C74.5505 17.422 74.5949 17.6373 74.6835 17.764C74.7849 17.8907 74.9559 17.9603 75.1965 17.973V20.5C74.6645 20.6013 74.2339 20.652 73.9045 20.652C73.3852 20.652 72.9609 20.538 72.6315 20.31C72.3022 20.082 72.1059 19.7653 72.0425 19.36L71.9855 18.847C71.6309 19.4677 71.1495 19.93 70.5415 20.234C69.9335 20.538 69.2939 20.69 68.6225 20.69C67.7105 20.69 66.8999 20.4683 66.1905 20.025C65.4812 19.569 64.9239 18.9483 64.5185 18.163C64.1132 17.3777 63.9105 16.491 63.9105 15.503ZM71.5295 16.738V14.648C71.3395 14.1413 71.0292 13.7297 70.5985 13.413C70.1805 13.0837 69.7435 12.919 69.2875 12.919C68.8569 12.919 68.4705 13.0393 68.1285 13.28C67.7865 13.5207 67.5205 13.8437 67.3305 14.249C67.1405 14.6543 67.0455 15.0913 67.0455 15.56C67.0455 16.2947 67.2672 16.909 67.7105 17.403C68.1665 17.8843 68.7429 18.125 69.4395 18.125C69.8575 18.125 70.2565 18.0047 70.6365 17.764C71.0292 17.5107 71.3269 17.1687 71.5295 16.738ZM86.5262 20.5H83.4862V14.895C83.4862 14.2363 83.3595 13.7613 83.1062 13.47C82.8655 13.166 82.5425 13.014 82.1372 13.014C81.7192 13.014 81.2949 13.1787 80.8642 13.508C80.4335 13.8373 80.1295 14.2617 79.9522 14.781V20.5H76.9122V10.525H79.6482V12.197C80.0155 11.6143 80.5349 11.1583 81.2062 10.829C81.8775 10.4997 82.6502 10.335 83.5242 10.335C84.1702 10.335 84.6895 10.4553 85.0822 10.696C85.4875 10.924 85.7915 11.228 85.9942 11.608C86.2095 11.9753 86.3489 12.3807 86.4122 12.824C86.4882 13.2673 86.5262 13.698 86.5262 14.116V20.5ZM93.296 20.69C92.156 20.69 91.187 20.4493 90.389 19.968C89.6036 19.4867 89.002 18.8533 88.584 18.068C88.166 17.2827 87.957 16.434 87.957 15.522C87.957 14.5973 88.166 13.7423 88.584 12.957C89.002 12.1717 89.61 11.5383 90.408 11.057C91.206 10.5757 92.1686 10.335 93.296 10.335C94.4233 10.335 95.386 10.5757 96.184 11.057C96.982 11.5383 97.59 12.1717 98.008 12.957C98.426 13.7423 98.635 14.5973 98.635 15.522C98.635 16.434 98.426 17.2827 98.008 18.068C97.59 18.8533 96.982 19.4867 96.184 19.968C95.386 20.4493 94.4233 20.69 93.296 20.69ZM91.073 15.522C91.073 16.2947 91.282 16.9217 91.7 17.403C92.1306 17.8843 92.6626 18.125 93.296 18.125C93.9166 18.125 94.436 17.8843 94.854 17.403C95.2846 16.9217 95.5 16.2947 95.5 15.522C95.5 14.7493 95.2846 14.1223 94.854 13.641C94.436 13.1597 93.9166 12.919 93.296 12.919C92.6626 12.919 92.1306 13.1597 91.7 13.641C91.282 14.1223 91.073 14.7493 91.073 15.522ZM106.454 19.968C106.036 20.1453 105.555 20.31 105.01 20.462C104.478 20.614 103.94 20.69 103.395 20.69C102.889 20.69 102.426 20.6077 102.008 20.443C101.59 20.2657 101.255 19.9807 101.001 19.588C100.748 19.1953 100.621 18.676 100.621 18.03V12.824H99.3482V10.525H100.621V7.352H103.661V10.525H105.694V12.824H103.661V16.985C103.661 17.3143 103.744 17.555 103.908 17.707C104.073 17.8463 104.282 17.916 104.535 17.916C104.763 17.916 104.998 17.878 105.238 17.802C105.479 17.726 105.688 17.6437 105.865 17.555L106.454 19.968ZM112.296 20.69C111.169 20.69 110.206 20.4557 109.408 19.987C108.61 19.5183 107.996 18.8977 107.565 18.125C107.147 17.3523 106.938 16.5163 106.938 15.617C106.938 14.6543 107.147 13.774 107.565 12.976C107.983 12.178 108.591 11.5383 109.389 11.057C110.187 10.5757 111.156 10.335 112.296 10.335C113.424 10.335 114.386 10.5757 115.184 11.057C115.982 11.5383 116.584 12.1717 116.989 12.957C117.407 13.7423 117.616 14.5847 117.616 15.484C117.616 15.8513 117.591 16.1743 117.54 16.453H110.168C110.219 17.1243 110.46 17.6373 110.89 17.992C111.334 18.334 111.834 18.505 112.391 18.505C112.835 18.505 113.259 18.3973 113.664 18.182C114.07 17.9667 114.348 17.6753 114.5 17.308L117.084 18.03C116.692 18.8153 116.077 19.455 115.241 19.949C114.418 20.443 113.436 20.69 112.296 20.69ZM110.092 14.591H114.424C114.361 13.9577 114.127 13.4573 113.721 13.09C113.329 12.71 112.841 12.52 112.258 12.52C111.676 12.52 111.182 12.71 110.776 13.09C110.384 13.47 110.156 13.9703 110.092 14.591Z" fill="#046380"/>
</svg>
